<svg xmlns="http://www.w3.org/2000/svg" viewBox="0 0 200 200" width="200" height="200">
  <circle cx="100" cy="100" r="100" fill="#D4880E"/>
  <!-- Flame/bird icon -->
  <path d="M100,35 Q120,60 115,80 Q130,65 125,90 Q145,75 135,100 Q150,95 138,115 Q145,120 130,130 L115,145 L105,135 L100,155 L95,135 L85,145 L70,130 Q55,120 62,115 Q50,95 65,100 Q55,75 75,90 Q70,65 80,80 Q80,60 100,35 Z" fill="#fff"/>
  <!-- Inner flame -->
  <path d="M100,70 Q112,85 108,100 Q118,92 112,110 L105,125 L100,118 L95,125 L88,110 Q82,92 92,100 Q88,85 100,70 Z" fill="#D4880E" opacity="0.5"/>
</svg>
